<svg xmlns="http://www.w3.org/2000/svg" width="256" height="256" viewBox="0 0 256 256">
  <g id="Group_2597" data-name="Group 2597" transform="translate(-12006 -2456)">
    <rect id="Rectangle_1600" data-name="Rectangle 1600" width="256" height="256" transform="translate(12006 2456)" fill="#ffc200"/>
    <g id="Group_2572" data-name="Group 2572" transform="translate(11782 2428.48)">
      <g id="Group_2571" data-name="Group 2571" transform="translate(421.947 131.432)">
        <rect id="_Rectangle_" data-name="&lt;Rectangle&gt;" width="38.221" height="48.655" rx="2.5" fill="#ffc200" stroke="#012241" stroke-miterlimit="10" stroke-width="1.5"/>
        <g id="_Group_" data-name="&lt;Group&gt;" transform="translate(4.367 8.096)">
          <rect id="_Rectangle_2" data-name="&lt;Rectangle&gt;" width="2.309" height="28.412" rx="0.491" transform="translate(12.439 1.029)" fill="#012241" stroke="#012241" stroke-miterlimit="10" stroke-width="0.75"/>
          <rect id="_Rectangle_3" data-name="&lt;Rectangle&gt;" width="2.309" height="5.325" rx="0.491" transform="translate(16.248) rotate(90)" fill="#012241" stroke="#012241" stroke-miterlimit="10" stroke-width="0.75"/>
          <rect id="_Rectangle_4" data-name="&lt;Rectangle&gt;" width="2.309" height="5.325" rx="0.491" transform="translate(16.248) rotate(90)" fill="#012241" stroke="#012241" stroke-miterlimit="10" stroke-width="0.75"/>
          <rect id="_Rectangle_5" data-name="&lt;Rectangle&gt;" width="2.309" height="5.325" rx="0.491" transform="translate(5.718 20.059) rotate(123.31)" fill="#012241" stroke="#012241" stroke-miterlimit="10" stroke-width="0.75"/>
          <rect id="_Rectangle_6" data-name="&lt;Rectangle&gt;" width="2.319" height="5.346" rx="0.493" transform="translate(25.702 17.795) rotate(56.785)" fill="#012241" stroke="#012241" stroke-miterlimit="10" stroke-width="0.753"/>
          <rect id="_Rectangle_7" data-name="&lt;Rectangle&gt;" width="2.309" height="5.325" rx="0.491" transform="translate(16.267 27.166) rotate(90)" fill="#012241" stroke="#012241" stroke-miterlimit="10" stroke-width="0.75"/>
          <path id="_Path_" data-name="&lt;Path&gt;" d="M90.283,11.563A10.29,10.29,0,0,0,79.76,20.589c0,1.226,1.806,1.606,2.354,0a9.416,9.416,0,0,1,8.213-6.427c4.729,0,7.039,4.369,7.769,6.389.577,1.605,2.589,1.226,2.545,0a10.09,10.09,0,0,0-10.358-8.99Z" transform="translate(-76.598 -0.155)" fill="#012241" stroke="#012241" stroke-miterlimit="10" stroke-width="0.75"/>
        </g>
      </g>
      <g id="_Group_2" data-name="&lt;Group&gt;" transform="translate(244 129.52)">
        <path id="_Compound_Path_" data-name="&lt;Compound Path&gt;" d="M38.419,10.49l8.522,25.495L54.262,10.49H64.879L52.5,50.039H41.809l-9.252-27-9.016,27H12.618L0,10.49H11.253l7.321,25.4,8.592-25.4Z" transform="translate(0 1.21)" fill="#012241"/>
        <path id="_Compound_Path_2" data-name="&lt;Compound Path&gt;" d="M38.825,27.909l9.722-1.436c2.354-.33,2.966-1.436,2.966-2.825,0-2.825-2.166-5.155-6.662-5.155a7.062,7.062,0,0,0-7.557,6.427l-9.416-2C28.514,16.727,34.116,9.9,44.851,9.9,57.4,9.9,62.06,16.962,62.06,24.943V44.388a44.256,44.256,0,0,0,.494,6.262h-9.84a26.884,26.884,0,0,1-.4-4.708A13.23,13.23,0,0,1,40.543,51.8c-8.451,0-13.583-5.7-13.583-11.888C27.054,32.805,32.3,28.968,38.825,27.909Zm12.712,6.756V32.9l-8.922,1.365a4.991,4.991,0,0,0-4.9,4.991,4.708,4.708,0,0,0,5.155,4.591c4.543-.024,8.734-2.189,8.734-9.2Z" transform="translate(36.507 0.411)" fill="#012241"/>
        <path id="_Compound_Path_3" data-name="&lt;Compound Path&gt;" d="M60.542,17.22H68.5v9.416H60.542V43.115c0,3.461,1.6,4.591,4.708,4.591a15.49,15.49,0,0,0,3.3-.33v8.851a15.843,15.843,0,0,1-6.027.965c-7.721,0-12.547-4.59-12.547-12.218V26.707H42.91V17.291h7.98V5.52h9.652Z" transform="translate(58.105 -5.52)" fill="#012241"/>
        <path id="_Compound_Path_4" data-name="&lt;Compound Path&gt;" d="M81.076,45.778a12.5,12.5,0,0,1-10.923,5.3c-9.558,0-15.043-7.062-15.043-15.584v-25H65.8V33.325c0,4.426,2.354,7.957,7.227,7.957a7.062,7.062,0,0,0,7.486-7.792v-23H91.2V42.882a65,65,0,0,0,.4,7.062H81.405a27.214,27.214,0,0,1-.33-4.167Z" transform="translate(74.625 1.21)" fill="#012241"/>
      </g>
    </g>
  </g>
</svg>
